<svg width="103" height="22" viewBox="0 0 103 22" fill="none" xmlns="http://www.w3.org/2000/svg">
<path id="logo" fill-rule="evenodd" clip-rule="evenodd" d="M15.1137 2.40357L12.643 0.5L0 10.5778L12.643 21.5L15.1137 19.4369L17.5018 21.5L30.5821 10.5778L17.5018 0.5L15.1137 2.40357ZM15.1137 2.40357L4.85882 10.5778L15.1137 19.4369L25.7233 10.5778L15.1137 2.40357ZM17.1116 10.7598C17.1116 11.6646 16.3781 12.3981 15.4733 12.3981C14.5685 12.3981 13.835 11.6646 13.835 10.7598C13.835 9.85497 14.5685 9.12146 15.4733 9.12146C16.3781 9.12146 17.1116 9.85497 17.1116 10.7598ZM37.296 13.82C38.064 15.084 39.568 15.772 41.792 15.772C43.824 15.772 45.552 15.052 46.56 13.644C47.072 12.908 47.312 12.044 47.312 10.972C47.312 8.828 46.384 7.372 44.752 6.604C43.936 6.22 42.976 6.028 41.888 6.028C39.744 6.028 38.08 6.828 37.216 8.284L37.056 6.364H35.344V18.764H37.296V13.82ZM45.296 10.972C45.296 13.052 43.984 14.156 41.216 14.156C38.624 14.156 37.216 13.068 37.216 10.972C37.216 8.908 38.768 7.628 41.28 7.628C43.824 7.628 45.296 8.812 45.296 10.972ZM56.7639 14.412C57.2599 13.98 57.6279 13.516 57.8839 12.988L58.0759 15.5H59.7079V9.484C59.7079 7.036 58.0439 6.012 54.5079 6.012C50.9559 6.012 49.0199 7.132 48.7159 9.612H50.7639C50.9559 8.156 51.9639 7.484 54.6679 7.484C56.2839 7.484 57.1479 7.836 57.5159 8.3C57.7079 8.54 57.8039 8.78 57.8039 9.036V9.052C57.8039 9.564 57.4679 9.82 56.5719 9.948C56.1239 10.012 55.5159 10.076 54.7159 10.124C52.7639 10.236 51.5959 10.396 50.8279 10.636C50.4439 10.748 50.1079 10.892 49.8039 11.068C48.9399 11.532 48.5079 12.252 48.5079 13.244V13.26C48.5079 14.908 49.7079 15.804 52.2999 15.804C54.2999 15.804 55.7559 15.276 56.7639 14.412ZM56.4759 13.276C55.5959 13.948 54.3639 14.364 52.8439 14.364C51.2119 14.364 50.6199 13.868 50.6199 13.1V13.084C50.6199 12.636 50.8279 12.268 51.2599 12.012C51.8199 11.644 52.7959 11.468 54.8919 11.356C56.7639 11.244 57.5319 11.004 57.8359 10.604V10.988C57.8359 11.788 57.3559 12.604 56.4759 13.276ZM67.1678 15.5H68.9118V13.756H67.6478C66.1758 13.756 65.4398 13.548 65.1198 12.732C64.9758 12.3 64.8958 11.692 64.8958 10.86V8.06H68.9118V6.364H64.8958V3.82H63.2477C63.2477 4.38 63.2318 5.068 63.1198 5.564C62.9918 6.172 62.8638 6.332 62.1278 6.412C61.9328 6.427 61.5269 6.442 61.121 6.457L61.0397 6.46H60.5278V8.06H63.0078V11.164C63.0078 13.324 63.4718 14.54 64.6878 15.1C65.2958 15.356 66.1117 15.5 67.1678 15.5ZM70.4356 15.5H72.3396V11.436C72.3396 8.956 73.7156 7.628 76.1316 7.628C77.7796 7.628 78.7236 8.252 79.1556 9.324C79.3636 9.852 79.4756 10.46 79.4756 11.148V15.5H81.4756V10.62C81.4756 8.78 80.7556 7.356 79.3476 6.588C78.6436 6.204 77.7956 6.012 76.7396 6.012C74.5476 6.012 73.0596 7.02 72.3556 8.604V3.372H70.4356V15.5ZM82.7951 15.5H90.8111L91.0511 14.108H84.5391L85.1951 10.444H90.5071L90.7471 9.084H85.4351L86.0751 5.484H92.3151L92.5551 4.124H84.7951L82.7951 15.5ZM97.776 4.124H94.112L92.112 15.5H96.352C99.424 15.5 101.36 13.756 101.936 10.396L102.016 9.884C102.448 7.372 101.792 5.676 100.352 4.78C99.616 4.348 98.784 4.124 97.776 4.124ZM93.888 14.124L95.408 5.484H97.536C99.792 5.484 100.976 6.924 100.48 9.74L100.384 10.252C99.936 12.828 98.512 14.124 96.256 14.124H93.888ZM102.688 17.1H82.2831V17.9H102.688V17.1Z" fill="#4C78FF"/>
</svg>
