<svg width="36" height="36" viewBox="0 0 36 36" fill="none" xmlns="http://www.w3.org/2000/svg">
<g id="Group">
<rect id="bg" width="36" height="36" fill="#FFCA28"/>
<g id="js">
<path d="M21.8571 29.9408L24.5077 28.187C24.7154 28.8396 26.0308 30.3895 27.6923 30.3895C29.3538 30.3895 30.1253 29.482 30.1253 28.8804C30.1253 27.2408 28.4287 26.6628 27.6138 26.3851C27.4809 26.3399 27.3715 26.3026 27.2967 26.27C27.2584 26.2533 27.2003 26.2311 27.1258 26.2027C26.2195 25.8564 22.8758 24.5789 22.8758 20.8759C22.8758 16.7972 26.8121 16.3281 27.7022 16.3281C28.2845 16.3281 31.0846 16.3995 32.4791 19.0201L29.9077 20.8147C29.344 19.6727 28.4073 19.2954 27.8308 19.2954C26.4066 19.2954 26.1099 20.3395 26.1099 20.8147C26.1099 22.1483 27.6572 22.746 28.9637 23.2507C29.3055 23.3827 29.6309 23.5084 29.9077 23.6392C31.3319 24.3122 33.4286 25.4134 33.4286 28.8804C33.4286 30.6168 31.9721 33.4281 28.3055 33.4281C23.3802 33.4281 22.0747 30.4711 21.8571 29.9408Z" fill="#3E3E3E"/>
<path d="M9 30.2891L11.7626 28.5361C11.9791 29.1884 12.8202 30.391 14.0407 30.391C15.2612 30.391 15.8858 29.1375 15.8858 28.5361V16.7138H19.2834V28.5361C19.3384 30.1668 18.434 33.4281 14.4427 33.4281C10.773 33.4281 9.2474 31.2471 9 30.2891Z" fill="#3E3E3E"/>
</g>
</g>
</svg>
