<svg width="104" height="21" viewBox="0 0 104 21" fill="none" xmlns="http://www.w3.org/2000/svg">
<path id="logo" fill-rule="evenodd" clip-rule="evenodd" d="M15.4867 1.90357L13.016 0L0.373047 10.0778L13.016 21L15.4867 18.9369L17.8748 21L30.9552 10.0778L17.8748 0L15.4867 1.90357ZM15.4867 1.90357L5.23186 10.0778L15.4867 18.9369L26.0964 10.0778L15.4867 1.90357ZM17.4847 10.2598C17.4847 11.1646 16.7512 11.8981 15.8463 11.8981C14.9415 11.8981 14.208 11.1646 14.208 10.2598C14.208 9.35497 14.9415 8.62146 15.8463 8.62146C16.7512 8.62146 17.4847 9.35497 17.4847 10.2598ZM37.669 13.32C38.437 14.584 39.941 15.272 42.165 15.272C44.197 15.272 45.925 14.552 46.933 13.144C47.445 12.408 47.685 11.544 47.685 10.472C47.685 8.328 46.757 6.872 45.125 6.104C44.309 5.72 43.349 5.528 42.261 5.528C40.117 5.528 38.453 6.328 37.589 7.784L37.429 5.864H35.717V18.264H37.669V13.32ZM45.669 10.472C45.669 12.552 44.357 13.656 41.589 13.656C38.997 13.656 37.589 12.568 37.589 10.472C37.589 8.408 39.141 7.128 41.653 7.128C44.197 7.128 45.669 8.312 45.669 10.472ZM57.1369 13.912C57.6329 13.48 58.0009 13.016 58.2569 12.488L58.4489 15H60.0809V8.984C60.0809 6.536 58.4169 5.512 54.8809 5.512C51.3289 5.512 49.3929 6.632 49.0889 9.112H51.1369C51.3289 7.656 52.3369 6.984 55.0409 6.984C56.6569 6.984 57.5209 7.336 57.8889 7.8C58.0809 8.04 58.1769 8.28 58.1769 8.536V8.552C58.1769 9.064 57.8409 9.32 56.9449 9.448C56.4969 9.512 55.8889 9.576 55.0889 9.624C53.1369 9.736 51.9689 9.896 51.2009 10.136C50.8169 10.248 50.4809 10.392 50.1769 10.568C49.3129 11.032 48.8809 11.752 48.8809 12.744V12.76C48.8809 14.408 50.0809 15.304 52.6729 15.304C54.6729 15.304 56.1289 14.776 57.1369 13.912ZM56.8489 12.776C55.9689 13.448 54.7369 13.864 53.2169 13.864C51.5849 13.864 50.9929 13.368 50.9929 12.6V12.584C50.9929 12.136 51.2009 11.768 51.6329 11.512C52.1929 11.144 53.1689 10.968 55.2649 10.856C57.1369 10.744 57.9049 10.504 58.2089 10.104V10.488C58.2089 11.288 57.7289 12.104 56.8489 12.776ZM67.5408 15H69.2848V13.256H68.0208C66.5488 13.256 65.8128 13.048 65.4928 12.232C65.3488 11.8 65.2688 11.192 65.2688 10.36V7.56H69.2848V5.864H65.2688V3.32H63.6208C63.6208 3.88 63.6048 4.568 63.4928 5.064C63.3648 5.672 63.2368 5.832 62.5008 5.912C62.3058 5.927 61.8999 5.942 61.494 5.957L61.4128 5.96H60.9008V7.56H63.3808V10.664C63.3808 12.824 63.8448 14.04 65.0608 14.6C65.6688 14.856 66.4848 15 67.5408 15ZM70.8087 15H72.7127V10.936C72.7127 8.456 74.0887 7.128 76.5047 7.128C78.1527 7.128 79.0967 7.752 79.5287 8.824C79.7367 9.352 79.8487 9.96 79.8487 10.648V15H81.8487V10.12C81.8487 8.28 81.1287 6.856 79.7207 6.088C79.0167 5.704 78.1687 5.512 77.1127 5.512C74.9207 5.512 73.4327 6.52 72.7287 8.104V2.872H70.8087V15ZM83.1682 15H91.1842L91.4242 13.608H84.9122L85.5682 9.944H90.8802L91.1202 8.584H85.8082L86.4482 4.984H92.6882L92.9282 3.624H85.1682L83.1682 15ZM98.149 3.624H94.485L92.485 15H96.725C99.797 15 101.733 13.256 102.309 9.896L102.389 9.384C102.821 6.872 102.165 5.176 100.725 4.28C99.989 3.848 99.157 3.624 98.149 3.624ZM94.261 13.624L95.781 4.984H97.909C100.165 4.984 101.349 6.424 100.853 9.24L100.757 9.752C100.309 12.328 98.885 13.624 96.629 13.624H94.261ZM103.061 16.6H82.6562V17.4H103.061V16.6Z" fill="#002CB2"/>
</svg>
